# xmcd
#
# Track frame offsets:
#	150
#	14532
#	30665
#	50955
#	70262
#	88945
#	104570
#	122327
#	135270
#	151202
#
# Disc length: 2237 seconds
#
# Revision: 1
# Processed by: cddbd v1.5.1PL2 Copyright (c) Steve Scherf et al.
# Submitted via: audiograbber 1.83.01
#
DISCID=8308bb0a
DTITLE=B Johnny - Sacrifice
DYEAR=1900
DGENRE=Country
TTITLE0=Hangin' on to yesterday
TTITLE1=Too late for that now
TTITLE2=Come on back to me a.s.a.p.
TTITLE3=Do the best you can
TTITLE4=One day man
TTITLE5=One houndred pounds of love
TTITLE6=Sacrifice
TTITLE7=It just ain't right
TTITLE8=Sleepng beauty
TTITLE9=Here she comes
EXTD=
EXTT0=
EXTT1=
EXTT2=
EXTT3=
EXTT4=
EXTT5=
EXTT6=
EXTT7=
EXTT8=
EXTT9=
PLAYORDER=
